<svg xmlns="http://www.w3.org/2000/svg" width="51.68" height="37.726" viewBox="0 0 51.68 37.726"><defs><style>.a{fill:#004b40;}</style></defs><g transform="translate(-46.586 -652.111)"><path class="a" d="M53.057,2974.092a9.857,9.857,0,0,0,7.284,3.133H83.074c4.632,0,8.79-3.625,8.79-8.257v-21.035a8.78,8.78,0,0,0-8.79-8.434H60.342a9.885,9.885,0,0,0-7.284,3.222L41.34,2955.483a4.316,4.316,0,0,0,0,5.877Zm-9.82-16.862,11.717-12.92a7.5,7.5,0,0,1,5.4-2.523H83.086c3.217,0,5.349,2.93,5.349,6.147v21.024c0,3.217-2.132,5.981-5.349,5.981H60.342a7.407,7.407,0,0,1-5.4-2.441l-11.706-12.8a1.827,1.827,0,0,1,0-2.467Zm0,0" transform="translate(6.401 -2287.389)"/><path class="a" d="M60.9,2963.8a1.29,1.29,0,0,0,1.823,0l5.009-5.011,5.009,5.011a1.286,1.286,0,1,0,1.825-1.813l-5.021-5.011,5.009-5.01a1.282,1.282,0,0,0-1.813-1.813l-5.009,5.01-5.009-5.01a1.282,1.282,0,1,0-1.813,1.813l5.009,5.01-5.009,5.011a1.285,1.285,0,0,0-.01,1.813Zm0,0" transform="translate(9.314 -2285.918)"/></g></svg>